<svg xmlns="http://www.w3.org/2000/svg" version="1.1" xmlns:xlink="http://www.w3.org/1999/xlink" width="1000" height="1000"><g clip-path="url(#SvgjsClipPath1094)"><rect width="1000" height="1000" fill="#ffffff"></rect><g transform="matrix(1.1160714285714286,0,0,1.1160714285714286,250,250)"><svg xmlns="http://www.w3.org/2000/svg" version="1.1" xmlns:xlink="http://www.w3.org/1999/xlink" width="448" height="448"><svg width="448" height="448" viewBox="0 0 448 448" fill="none" xmlns="http://www.w3.org/2000/svg">
<path d="M373.333 19.3337C414.57 19.3338 447.999 52.7629 447.999 93.9998C447.999 135.237 414.57 168.667 373.333 168.667V168.667C361.444 168.667 349.235 173.165 343.297 183.464L294.336 268.379C283.707 286.814 288.593 309.881 295.102 330.14C297.417 337.345 298.667 345.026 298.667 353C298.667 394.237 265.237 427.667 224 427.667C182.763 427.667 149.334 394.237 149.334 353C149.334 345.026 150.584 337.345 152.898 330.14C159.406 309.881 164.292 286.814 153.663 268.38L104.702 183.463C98.764 173.164 86.555 168.667 74.667 168.667V168.667C33.4299 168.667 0.000220017 135.238 0 94.0007C0 52.7635 33.4298 19.3337 74.667 19.3337C115.904 19.334 149.333 52.7637 149.333 94.0007C149.333 101.974 148.083 109.655 145.769 116.859C139.26 137.118 134.374 160.185 145.003 178.619L193.965 263.537C199.903 273.835 212.112 278.334 224 278.334V278.334V278.334C235.888 278.334 248.097 273.835 254.035 263.537L302.996 178.619C313.624 160.185 308.739 137.118 302.23 116.86C299.916 109.655 298.666 101.973 298.666 93.9998C298.666 52.7628 332.096 19.3337 373.333 19.3337Z" fill="black"></path>
</svg></svg></g></g><defs><clipPath id="SvgjsClipPath1094"><rect width="1000" height="1000" x="0" y="0" rx="500" ry="500"></rect></clipPath></defs></svg>